<svg id="svg" version="1.1" xmlns="http://www.w3.org/2000/svg" xmlns:xlink="http://www.w3.org/1999/xlink" width="400" height="400" viewBox="0, 0, 400,400"><g id="svgg"><path id="path0" d="M57.694 172.500 C 57.752 214.795,57.847 261.955,57.905 277.300 L 58.011 305.200 64.804 305.200 L 71.597 305.200 71.699 252.733 C 71.765 218.190,71.937 200.226,72.200 200.147 C 72.420 200.081,73.230 200.876,74.000 201.913 C 74.770 202.951,75.580 203.994,75.800 204.231 C 76.020 204.468,77.280 205.890,78.600 207.392 C 81.700 210.919,81.476 210.668,83.800 213.227 C 84.900 214.438,86.988 216.773,88.440 218.415 C 94.749 225.548,103.371 235.255,104.202 236.162 C 104.423 236.403,105.953 238.126,107.602 239.992 C 109.251 241.858,111.338 244.198,112.241 245.192 C 113.646 246.740,118.537 252.236,122.944 257.220 C 127.533 262.410,130.439 265.662,132.040 267.400 C 133.052 268.500,134.583 270.210,135.441 271.200 C 136.298 272.190,137.090 273.090,137.200 273.200 C 137.311 273.310,138.569 274.750,139.997 276.400 C 141.424 278.050,143.512 280.390,144.637 281.600 C 145.762 282.810,147.378 284.610,148.228 285.600 C 149.078 286.590,150.680 288.397,151.787 289.616 C 154.448 292.546,159.052 297.731,160.800 299.767 C 161.570 300.663,163.010 302.258,164.000 303.310 L 165.800 305.224 175.542 305.112 L 185.283 305.000 182.192 301.600 C 174.373 293.000,172.443 290.866,170.793 289.000 C 169.820 287.900,167.938 285.824,166.612 284.386 C 165.285 282.948,163.480 280.965,162.600 279.980 C 161.720 278.994,158.480 275.401,155.401 271.994 C 152.321 268.587,149.171 265.094,148.401 264.231 C 147.630 263.368,145.995 261.568,144.766 260.231 C 143.537 258.894,141.827 256.990,140.966 256.000 C 140.105 255.010,139.129 253.930,138.797 253.600 C 138.465 253.270,136.575 251.200,134.597 249.000 C 132.619 246.800,130.908 244.910,130.794 244.800 C 130.681 244.690,129.241 243.078,127.594 241.217 C 125.948 239.357,123.504 236.657,122.166 235.217 C 120.827 233.778,118.937 231.701,117.966 230.601 C 116.994 229.502,115.282 227.612,114.159 226.401 C 113.037 225.191,111.417 223.390,110.561 222.400 C 109.705 221.410,107.997 219.520,106.765 218.200 C 103.755 214.973,97.331 207.861,95.600 205.838 C 94.830 204.938,93.052 202.993,91.648 201.516 C 87.244 196.880,87.178 197.758,92.350 192.169 C 93.588 190.832,95.231 189.032,96.001 188.169 C 98.650 185.203,108.601 174.202,109.400 173.356 C 109.840 172.890,111.562 170.999,113.227 169.154 C 114.892 167.310,118.042 163.820,120.227 161.400 C 122.412 158.981,124.830 156.298,125.600 155.439 C 126.370 154.580,127.360 153.496,127.800 153.030 C 128.240 152.564,130.130 150.481,132.000 148.400 C 133.870 146.319,135.760 144.242,136.200 143.783 C 136.640 143.324,138.260 141.533,139.800 139.804 C 141.340 138.075,143.140 136.102,143.800 135.420 C 144.460 134.738,146.349 132.654,147.999 130.790 C 149.648 128.925,151.839 126.500,152.868 125.400 C 153.897 124.300,155.125 122.950,155.598 122.400 C 157.160 120.585,166.883 109.929,168.003 108.805 C 168.335 108.472,169.219 107.480,169.968 106.600 C 170.717 105.720,172.926 103.277,174.877 101.172 C 176.828 99.066,178.699 96.951,179.035 96.472 L 179.645 95.600 170.445 95.600 C 161.604 95.600,161.223 95.632,160.667 96.426 C 160.349 96.880,159.124 98.275,157.944 99.526 C 156.764 100.776,155.091 102.610,154.226 103.600 C 153.361 104.590,151.170 107.020,149.357 109.000 C 147.543 110.980,145.731 112.979,145.330 113.443 C 144.928 113.907,143.070 115.966,141.200 118.020 C 136.781 122.873,133.862 126.106,131.455 128.812 C 130.385 130.016,128.584 131.990,127.454 133.200 C 126.324 134.410,124.691 136.210,123.826 137.200 C 121.995 139.296,116.532 145.335,112.800 149.389 C 111.370 150.942,109.417 153.110,108.460 154.206 C 107.502 155.303,105.792 157.190,104.659 158.400 C 103.526 159.610,101.898 161.410,101.041 162.400 C 100.184 163.390,98.473 165.280,97.239 166.600 C 96.005 167.920,94.292 169.810,93.432 170.800 C 92.572 171.790,90.863 173.690,89.634 175.023 C 83.563 181.608,74.690 191.631,73.600 193.137 C 72.925 194.068,72.199 194.723,71.986 194.592 C 71.741 194.440,71.600 176.309,71.600 144.976 L 71.600 95.600 64.594 95.600 L 57.589 95.600 57.694 172.500 M215.600 200.400 L 215.600 305.200 222.600 305.200 L 229.600 305.200 229.600 252.824 C 229.600 224.017,229.744 200.358,229.919 200.250 C 230.380 199.965,230.849 200.374,232.388 202.400 C 233.140 203.390,234.575 205.107,235.578 206.215 C 236.580 207.323,237.943 208.853,238.607 209.615 C 239.271 210.377,242.220 213.700,245.160 217.000 C 248.100 220.300,251.067 223.630,251.753 224.400 C 252.439 225.170,254.350 227.330,256.000 229.200 C 257.650 231.070,259.091 232.690,259.202 232.800 C 259.313 232.910,260.838 234.620,262.590 236.600 C 264.343 238.580,266.682 241.195,267.788 242.410 C 271.048 245.992,275.708 251.214,277.000 252.734 C 277.660 253.510,279.100 255.125,280.200 256.322 C 281.300 257.519,282.650 259.042,283.200 259.705 C 283.750 260.368,284.888 261.650,285.728 262.555 C 286.569 263.460,288.099 265.190,289.128 266.400 C 290.158 267.610,291.276 268.870,291.612 269.200 C 291.949 269.530,294.536 272.410,297.361 275.600 C 300.186 278.790,303.681 282.719,305.128 284.330 C 306.575 285.942,308.096 287.652,308.508 288.130 C 308.921 288.609,312.505 292.645,316.474 297.100 L 323.691 305.200 333.706 305.200 C 343.272 305.200,343.688 305.169,342.953 304.500 C 342.530 304.115,340.580 302.000,338.619 299.800 C 336.658 297.600,334.949 295.710,334.821 295.600 C 334.693 295.490,333.241 293.877,331.594 292.015 C 329.948 290.154,328.240 288.252,327.800 287.789 C 327.360 287.326,325.560 285.356,323.800 283.411 C 322.040 281.467,320.420 279.678,320.200 279.436 C 319.980 279.194,318.450 277.471,316.800 275.608 C 315.150 273.745,313.260 271.660,312.600 270.976 C 311.940 270.291,310.050 268.230,308.400 266.395 C 306.750 264.560,305.220 262.866,305.000 262.630 C 304.780 262.393,303.160 260.585,301.400 258.611 C 299.640 256.638,297.840 254.647,297.400 254.187 C 296.523 253.272,291.299 247.502,290.131 246.159 C 289.470 245.399,284.500 239.919,282.000 237.194 C 280.909 236.005,279.925 234.911,274.800 229.197 C 270.736 224.666,271.392 225.387,267.133 220.764 C 265.227 218.694,263.278 216.550,262.802 216.000 C 262.326 215.450,260.646 213.577,259.069 211.838 C 257.491 210.099,255.930 208.370,255.600 207.997 C 255.270 207.623,253.447 205.626,251.549 203.559 C 249.651 201.491,247.608 199.212,247.008 198.494 L 245.918 197.187 247.432 195.494 C 249.978 192.646,255.684 186.353,257.841 184.014 C 258.964 182.796,260.674 180.906,261.641 179.813 C 262.608 178.719,264.578 176.559,266.018 175.013 C 267.459 173.466,269.242 171.480,269.981 170.600 C 270.720 169.720,272.961 167.214,274.962 165.031 C 276.963 162.847,279.685 159.877,281.012 158.431 C 282.338 156.984,284.213 154.900,285.178 153.800 C 286.142 152.700,288.207 150.450,289.766 148.800 C 291.325 147.150,293.114 145.170,293.743 144.400 C 294.371 143.630,295.995 141.830,297.350 140.400 C 298.705 138.970,300.419 137.080,301.159 136.200 C 301.898 135.320,303.611 133.430,304.964 132.000 C 306.318 130.570,308.229 128.478,309.212 127.351 C 311.444 124.795,317.793 117.787,320.765 114.600 C 321.997 113.280,323.712 111.390,324.577 110.400 C 327.679 106.849,332.650 101.373,335.368 98.513 L 338.135 95.600 328.908 95.600 L 319.680 95.600 317.307 98.100 C 315.268 100.248,310.058 105.979,305.761 110.800 C 303.673 113.142,295.588 122.072,293.629 124.200 C 292.616 125.300,289.287 128.990,286.231 132.400 C 283.176 135.810,279.664 139.680,278.428 141.000 C 277.192 142.320,274.580 145.200,272.624 147.400 C 270.667 149.600,268.062 152.491,266.833 153.825 C 265.605 155.158,263.160 157.846,261.400 159.798 C 259.640 161.750,257.840 163.723,257.400 164.183 C 256.960 164.643,255.895 165.825,255.034 166.810 C 254.173 167.794,252.463 169.689,251.234 171.020 C 250.005 172.351,248.309 174.241,247.465 175.220 C 246.621 176.199,245.001 177.990,243.865 179.200 C 242.728 180.410,241.093 182.210,240.230 183.200 C 239.367 184.190,237.557 186.196,236.209 187.658 C 234.861 189.119,233.137 191.230,232.379 192.347 C 229.390 196.753,229.600 200.337,229.600 145.000 L 229.600 95.600 222.600 95.600 L 215.600 95.600 215.600 200.400 " stroke="none" fill="#fa6e53" fill-rule="evenodd"></path><path id="path1" d="M0.000 200.000 L 0.000 400.000 200.000 400.000 L 400.000 400.000 400.000 200.000 L 400.000 0.000 200.000 0.000 L 0.000 0.000 0.000 200.000 M72.400 144.352 L 72.600 193.305 73.600 191.960 C 74.418 190.861,77.589 187.192,78.406 186.400 C 78.520 186.290,79.124 185.570,79.749 184.800 C 80.374 184.030,82.085 182.140,83.551 180.600 C 85.017 179.060,86.826 177.080,87.572 176.200 C 88.964 174.556,94.078 168.892,98.032 164.615 C 99.260 163.287,100.880 161.492,101.632 160.628 C 102.385 159.763,104.153 157.824,105.562 156.320 C 106.971 154.815,108.681 152.926,109.362 152.122 C 110.043 151.317,110.961 150.285,111.403 149.829 C 111.844 149.373,113.811 147.200,115.774 145.000 C 117.737 142.800,120.436 139.808,121.771 138.351 C 127.112 132.526,130.752 128.512,132.238 126.810 C 133.097 125.825,134.160 124.640,134.600 124.177 C 135.040 123.714,136.840 121.740,138.600 119.791 C 140.360 117.843,142.340 115.694,143.000 115.017 C 143.660 114.340,145.190 112.621,146.400 111.197 C 147.610 109.773,148.960 108.236,149.400 107.781 C 149.840 107.326,151.640 105.367,153.400 103.428 C 155.160 101.488,157.603 98.844,158.830 97.551 L 161.060 95.200 170.706 95.200 C 176.012 95.200,180.439 95.339,180.543 95.508 C 180.648 95.678,179.444 97.193,177.867 98.875 C 176.290 100.557,174.402 102.623,173.670 103.466 C 172.939 104.310,171.312 106.080,170.054 107.400 C 168.797 108.720,167.362 110.330,166.866 110.978 C 166.369 111.625,164.666 113.538,163.081 115.229 C 160.048 118.464,154.426 124.588,153.277 125.908 C 149.801 129.904,143.974 136.335,141.800 138.575 C 140.920 139.482,138.956 141.659,137.435 143.412 C 133.963 147.415,129.207 152.654,126.600 155.346 C 125.500 156.482,124.082 158.039,123.449 158.806 C 122.816 159.573,121.466 161.114,120.449 162.231 C 119.432 163.348,117.160 165.858,115.400 167.808 C 113.640 169.759,111.480 172.090,110.600 172.988 C 109.720 173.886,108.280 175.512,107.400 176.600 C 106.520 177.688,105.080 179.310,104.200 180.203 C 103.320 181.097,101.520 183.078,100.200 184.607 C 98.880 186.136,96.900 188.313,95.800 189.445 C 93.092 192.233,89.256 196.623,89.115 197.096 C 88.995 197.497,91.770 200.759,96.654 205.961 C 98.223 207.632,100.179 209.810,100.999 210.800 C 101.820 211.790,103.776 213.977,105.345 215.661 C 109.399 220.008,114.052 225.130,115.641 226.994 C 116.389 227.871,118.195 229.851,119.655 231.394 C 121.115 232.937,122.825 234.824,123.455 235.588 C 124.085 236.351,125.384 237.791,126.342 238.788 C 127.299 239.784,128.919 241.586,129.942 242.791 C 130.964 243.997,132.995 246.247,134.455 247.791 C 135.915 249.336,137.625 251.224,138.255 251.988 C 138.885 252.751,140.184 254.191,141.142 255.188 C 142.099 256.184,143.719 257.982,144.742 259.182 C 145.764 260.382,147.468 262.258,148.529 263.352 C 149.590 264.445,151.300 266.338,152.329 267.557 C 153.358 268.776,155.119 270.702,156.242 271.837 C 157.365 272.973,158.805 274.599,159.442 275.451 C 160.079 276.303,161.410 277.814,162.400 278.809 C 163.390 279.804,165.820 282.411,167.800 284.602 C 169.780 286.794,171.793 288.991,172.273 289.484 C 172.753 289.978,173.653 291.061,174.273 291.891 C 174.893 292.721,176.210 294.214,177.200 295.209 C 180.619 298.645,186.000 304.717,186.000 305.140 C 186.000 305.889,183.595 306.050,174.299 305.924 L 165.199 305.800 163.699 304.134 C 162.875 303.217,160.670 300.727,158.800 298.600 C 156.930 296.473,154.798 294.073,154.063 293.266 C 153.328 292.460,151.533 290.450,150.075 288.800 C 148.617 287.150,146.519 284.800,145.412 283.577 C 144.305 282.355,142.770 280.638,142.000 279.762 C 137.837 275.028,134.373 271.133,132.408 268.976 C 128.525 264.714,124.544 260.242,123.355 258.806 C 122.720 258.040,121.684 256.870,121.053 256.206 C 120.423 255.543,118.893 253.830,117.653 252.400 C 116.414 250.970,114.560 248.900,113.532 247.800 C 112.505 246.700,111.250 245.260,110.743 244.600 C 110.236 243.940,109.365 242.950,108.807 242.400 C 108.249 241.850,106.448 239.870,104.804 238.000 C 103.160 236.130,100.912 233.596,99.808 232.369 C 94.735 226.730,92.405 224.094,91.350 222.800 C 90.723 222.030,89.757 220.949,89.205 220.398 C 88.652 219.848,86.940 217.959,85.400 216.202 C 83.860 214.445,82.225 212.622,81.766 212.151 C 81.307 211.680,80.227 210.424,79.366 209.358 C 78.505 208.293,77.053 206.665,76.140 205.740 C 75.227 204.816,74.153 203.506,73.754 202.830 C 73.354 202.153,72.886 201.600,72.714 201.600 C 72.541 201.600,72.400 224.874,72.400 253.320 C 72.400 293.013,72.288 305.152,71.920 305.520 C 71.404 306.036,60.393 306.219,58.050 305.750 L 56.800 305.500 56.800 200.341 L 56.800 95.183 64.500 95.291 L 72.200 95.400 72.400 144.352 M230.702 144.120 L 230.803 192.841 233.304 189.898 C 236.669 185.938,241.358 180.730,243.800 178.240 C 244.900 177.118,246.218 175.664,246.729 175.010 C 247.239 174.355,249.098 172.252,250.860 170.335 C 252.621 168.418,254.419 166.434,254.854 165.925 C 255.289 165.416,257.064 163.470,258.799 161.600 C 260.535 159.730,264.530 155.320,267.677 151.800 C 270.825 148.280,274.034 144.770,274.808 144.000 C 275.583 143.230,276.597 142.107,277.062 141.505 C 277.527 140.902,279.503 138.661,281.454 136.525 C 283.404 134.388,285.900 131.650,287.000 130.440 C 288.100 129.230,289.540 127.679,290.200 126.993 C 290.860 126.308,291.996 125.039,292.725 124.173 C 293.454 123.308,294.924 121.690,295.991 120.578 C 297.059 119.466,298.596 117.756,299.407 116.778 C 300.217 115.800,302.167 113.645,303.740 111.989 C 305.313 110.333,307.118 108.353,307.750 107.589 C 308.383 106.825,309.913 105.106,311.150 103.768 C 312.388 102.431,314.628 99.956,316.128 98.268 L 318.856 95.200 328.628 95.200 C 336.792 95.200,338.400 95.293,338.400 95.767 C 338.400 96.078,338.265 96.393,338.100 96.467 C 337.935 96.540,336.773 97.789,335.517 99.242 C 334.261 100.695,332.371 102.771,331.317 103.854 C 330.263 104.937,328.590 106.808,327.600 108.011 C 326.610 109.215,324.990 111.013,324.000 112.007 C 323.010 113.000,321.188 114.980,319.952 116.407 C 318.716 117.833,317.006 119.727,316.152 120.615 C 315.298 121.503,313.430 123.572,312.000 125.214 C 310.570 126.856,308.766 128.829,307.992 129.599 C 307.217 130.370,306.167 131.540,305.659 132.200 C 305.150 132.860,303.624 134.575,302.267 136.012 C 300.910 137.448,298.784 139.788,297.541 141.212 C 296.299 142.635,294.499 144.616,293.541 145.612 C 292.584 146.609,291.286 148.049,290.657 148.812 C 290.028 149.576,288.497 151.280,287.255 152.600 C 286.012 153.920,284.294 155.810,283.436 156.800 C 281.870 158.608,277.252 163.692,272.386 168.967 C 270.948 170.525,268.583 173.150,267.130 174.800 C 265.677 176.450,263.703 178.632,262.744 179.649 C 261.785 180.665,260.476 182.105,259.837 182.849 C 259.197 183.592,257.667 185.280,256.437 186.600 C 255.206 187.920,253.509 189.810,252.665 190.800 C 251.820 191.790,250.245 193.530,249.165 194.666 C 246.680 197.279,246.672 197.220,250.026 200.800 C 251.572 202.450,253.503 204.609,254.318 205.597 C 255.133 206.585,256.610 208.211,257.600 209.209 C 258.590 210.207,260.747 212.549,262.393 214.412 C 264.039 216.275,265.662 218.070,266.000 218.400 C 266.338 218.730,267.692 220.258,269.008 221.796 C 270.323 223.334,272.030 225.226,272.800 226.000 C 273.570 226.775,274.905 228.217,275.766 229.204 C 276.627 230.192,278.337 232.091,279.566 233.425 C 280.795 234.758,283.060 237.268,284.600 239.001 C 286.140 240.735,287.940 242.705,288.600 243.380 C 289.260 244.055,290.317 245.235,290.949 246.003 C 291.581 246.771,293.291 248.667,294.749 250.215 C 296.207 251.764,297.998 253.744,298.730 254.615 C 299.461 255.487,301.081 257.282,302.330 258.605 C 303.578 259.927,305.117 261.637,305.749 262.405 C 306.382 263.172,308.092 265.073,309.549 266.630 C 311.007 268.186,312.798 270.166,313.528 271.030 C 314.259 271.893,315.884 273.680,317.138 275.000 C 318.393 276.320,319.933 278.030,320.559 278.800 C 321.186 279.570,322.892 281.484,324.349 283.053 C 329.520 288.620,333.413 292.909,334.400 294.126 C 334.950 294.804,336.570 296.603,338.000 298.123 C 339.430 299.643,340.960 301.344,341.400 301.903 C 341.840 302.462,342.621 303.351,343.136 303.878 C 345.087 305.875,344.523 306.000,333.582 306.000 L 323.538 306.000 322.469 304.890 C 321.881 304.279,319.780 301.926,317.800 299.661 C 315.820 297.396,313.390 294.690,312.400 293.647 C 311.410 292.605,309.970 290.976,309.200 290.027 C 308.430 289.078,306.990 287.452,306.000 286.414 C 305.010 285.375,303.320 283.500,302.244 282.246 C 301.169 280.992,299.749 279.388,299.090 278.683 C 298.430 277.977,297.240 276.595,296.445 275.611 C 295.650 274.626,294.280 273.076,293.400 272.165 C 291.410 270.106,286.563 264.703,283.394 261.012 C 282.077 259.479,280.460 257.662,279.800 256.975 C 279.140 256.288,277.665 254.648,276.522 253.329 C 275.380 252.011,273.940 250.390,273.322 249.727 C 272.705 249.065,271.602 247.820,270.871 246.961 C 270.140 246.103,268.697 244.500,267.664 243.400 C 266.631 242.300,265.272 240.770,264.643 240.000 C 264.014 239.230,262.487 237.506,261.250 236.169 C 260.012 234.832,258.476 233.122,257.835 232.369 C 257.194 231.616,255.844 230.098,254.835 228.996 C 253.826 227.894,252.308 226.186,251.462 225.200 C 250.616 224.215,248.996 222.396,247.862 221.159 C 244.933 217.962,241.107 213.633,239.766 211.997 C 239.135 211.229,237.581 209.509,236.312 208.175 C 235.043 206.841,233.283 204.784,232.402 203.603 L 230.800 201.456 230.800 253.338 L 230.800 305.220 229.774 305.610 C 228.397 306.133,216.559 306.113,215.574 305.586 C 214.783 305.163,214.288 96.246,215.075 95.458 C 215.226 95.307,218.781 95.232,222.975 95.292 L 230.600 95.400 230.702 144.120 " stroke="none" fill="#040404" fill-rule="evenodd"></path><path id="path2" d="M215.385 95.700 C 215.281 95.975,215.241 143.270,215.298 200.800 L 215.400 305.400 215.600 200.300 C 215.710 142.495,215.749 95.200,215.687 95.200 C 215.626 95.200,215.489 95.425,215.385 95.700 M229.903 144.303 C 229.960 171.288,230.140 193.500,230.303 193.663 C 230.466 193.826,230.554 171.882,230.497 144.897 C 230.440 117.912,230.260 95.700,230.097 95.537 C 229.934 95.374,229.846 117.318,229.903 144.303 M158.778 97.900 L 157.400 99.400 158.900 98.022 C 159.725 97.263,160.400 96.588,160.400 96.522 C 160.400 96.216,160.062 96.504,158.778 97.900 M172.175 104.500 L 171.000 105.800 172.300 104.625 C 173.015 103.979,173.600 103.394,173.600 103.325 C 173.600 103.016,173.270 103.288,172.175 104.500 M150.975 106.500 L 149.800 107.800 151.100 106.625 C 151.815 105.979,152.400 105.394,152.400 105.325 C 152.400 105.016,152.070 105.288,150.975 106.500 M143.178 115.100 L 141.800 116.600 143.300 115.222 C 144.696 113.938,144.984 113.600,144.678 113.600 C 144.612 113.600,143.937 114.275,143.178 115.100 M128.175 131.700 L 127.000 133.000 128.300 131.825 C 129.512 130.730,129.784 130.400,129.475 130.400 C 129.406 130.400,128.821 130.985,128.175 131.700 M140.975 138.900 L 139.800 140.200 141.100 139.025 C 141.815 138.379,142.400 137.794,142.400 137.725 C 142.400 137.416,142.070 137.688,140.975 138.900 M120.378 140.300 L 119.000 141.800 120.500 140.422 C 121.325 139.663,122.000 138.988,122.000 138.922 C 122.000 138.616,121.662 138.904,120.378 140.300 M112.778 148.700 L 111.400 150.200 112.900 148.822 C 114.296 147.538,114.584 147.200,114.278 147.200 C 114.212 147.200,113.537 147.875,112.778 148.700 M288.575 150.500 L 287.400 151.800 288.700 150.625 C 289.415 149.979,290.000 149.394,290.000 149.325 C 290.000 149.016,289.670 149.288,288.575 150.500 M129.375 151.700 L 128.200 153.000 129.500 151.825 C 130.712 150.730,130.984 150.400,130.675 150.400 C 130.606 150.400,130.021 150.985,129.375 151.700 M267.375 152.500 L 266.200 153.800 267.500 152.625 C 268.215 151.979,268.800 151.394,268.800 151.325 C 268.800 151.016,268.470 151.288,267.375 152.500 M114.175 168.500 L 113.000 169.800 114.300 168.625 C 115.512 167.530,115.784 167.200,115.475 167.200 C 115.406 167.200,114.821 167.785,114.175 168.500 M252.575 168.900 L 251.400 170.200 252.700 169.025 C 253.415 168.379,254.000 167.794,254.000 167.725 C 254.000 167.416,253.670 167.688,252.575 168.900 M110.175 172.900 L 109.000 174.200 110.300 173.025 C 111.512 171.930,111.784 171.600,111.475 171.600 C 111.406 171.600,110.821 172.185,110.175 172.900 M248.575 173.300 L 247.400 174.600 248.700 173.425 C 249.415 172.779,250.000 172.194,250.000 172.125 C 250.000 171.816,249.670 172.088,248.575 173.300 M244.575 177.700 L 243.400 179.000 244.700 177.825 C 245.415 177.179,246.000 176.594,246.000 176.525 C 246.000 176.216,245.670 176.488,244.575 177.700 M102.575 181.300 L 101.400 182.600 102.700 181.425 C 103.415 180.779,104.000 180.194,104.000 180.125 C 104.000 179.816,103.670 180.088,102.575 181.300 M236.975 186.100 L 235.800 187.400 237.100 186.225 C 237.815 185.579,238.400 184.994,238.400 184.925 C 238.400 184.616,238.070 184.888,236.975 186.100 M94.575 190.100 L 93.400 191.400 94.700 190.225 C 95.415 189.579,96.000 188.994,96.000 188.925 C 96.000 188.616,95.670 188.888,94.575 190.100 M229.903 253.162 C 229.846 281.961,229.935 305.440,230.100 305.338 C 230.265 305.236,230.400 281.778,230.400 253.210 C 230.400 212.030,230.504 201.225,230.900 201.065 C 231.200 200.944,231.121 200.851,230.703 200.832 C 230.044 200.802,230.000 203.670,229.903 253.162 M104.800 215.725 C 104.800 215.794,105.385 216.379,106.100 217.025 L 107.400 218.200 106.225 216.900 C 105.130 215.688,104.800 215.416,104.800 215.725 M263.200 216.125 C 263.200 216.194,263.785 216.779,264.500 217.425 L 265.800 218.600 264.625 217.300 C 263.530 216.088,263.200 215.816,263.200 216.125 M246.800 219.725 C 246.800 219.794,247.385 220.379,248.100 221.025 L 249.400 222.200 248.225 220.900 C 247.130 219.688,246.800 219.416,246.800 219.725 M254.800 228.600 C 255.546 229.370,256.247 230.000,256.357 230.000 C 256.467 230.000,255.946 229.370,255.200 228.600 C 254.454 227.830,253.753 227.200,253.643 227.200 C 253.533 227.200,254.054 227.830,254.800 228.600 M278.800 233.325 C 278.800 233.394,279.385 233.979,280.100 234.625 L 281.400 235.800 280.225 234.500 C 279.130 233.288,278.800 233.016,278.800 233.325 M260.000 234.525 C 260.000 234.594,260.585 235.179,261.300 235.825 L 262.600 237.000 261.425 235.700 C 260.330 234.488,260.000 234.216,260.000 234.525 M286.800 242.125 C 286.800 242.194,287.385 242.779,288.100 243.425 L 289.400 244.600 288.225 243.300 C 287.130 242.088,286.800 241.816,286.800 242.125 M301.600 258.525 C 301.600 258.594,302.185 259.179,302.900 259.825 L 304.200 261.000 303.025 259.700 C 301.930 258.488,301.600 258.216,301.600 258.525 M146.000 261.325 C 146.000 261.394,146.585 261.979,147.300 262.625 L 148.600 263.800 147.425 262.500 C 146.330 261.288,146.000 261.016,146.000 261.325 M286.000 263.725 C 286.000 263.794,286.585 264.379,287.300 265.025 L 288.600 266.200 287.425 264.900 C 286.330 263.688,286.000 263.416,286.000 263.725 M154.000 270.125 C 154.000 270.194,154.585 270.779,155.300 271.425 L 156.600 272.600 155.425 271.300 C 154.330 270.088,154.000 269.816,154.000 270.125 M292.800 271.325 C 292.800 271.394,293.385 271.979,294.100 272.625 L 295.400 273.800 294.225 272.500 C 293.130 271.288,292.800 271.016,292.800 271.325 M161.600 278.525 C 161.600 278.594,162.185 279.179,162.900 279.825 L 164.200 281.000 163.025 279.700 C 161.930 278.488,161.600 278.216,161.600 278.525 M299.200 278.525 C 299.200 278.594,299.785 279.179,300.500 279.825 L 301.800 281.000 300.625 279.700 C 299.530 278.488,299.200 278.216,299.200 278.525 M176.800 295.325 C 176.800 295.394,177.385 295.979,178.100 296.625 L 179.400 297.800 178.225 296.500 C 177.130 295.288,176.800 295.016,176.800 295.325 M156.800 296.125 C 156.800 296.194,157.385 296.779,158.100 297.425 L 159.400 298.600 158.225 297.300 C 157.130 296.088,156.800 295.816,156.800 296.125 M318.800 300.525 C 318.800 300.594,319.385 301.179,320.100 301.825 L 321.400 303.000 320.225 301.700 C 319.130 300.488,318.800 300.216,318.800 300.525 M163.200 303.325 C 163.200 303.394,163.785 303.979,164.500 304.625 L 165.800 305.800 164.625 304.500 C 163.530 303.288,163.200 303.016,163.200 303.325 " stroke="none" fill="#693022" fill-rule="evenodd"></path><path id="path3" d="M56.898 200.500 C 56.952 258.415,57.042 288.700,57.098 267.800 C 57.370 166.245,57.371 95.200,57.100 95.200 C 56.935 95.200,56.844 142.585,56.898 200.500 M180.110 95.412 C 180.280 95.600,179.567 96.618,178.525 97.676 C 177.483 98.734,176.803 99.582,177.015 99.559 C 177.861 99.470,180.854 95.680,180.322 95.373 C 180.035 95.207,179.939 95.225,180.110 95.412 M215.067 95.467 C 214.696 95.837,214.729 305.109,215.100 305.338 C 215.265 305.440,215.400 258.201,215.400 200.362 C 215.400 142.523,215.385 95.200,215.367 95.200 C 215.348 95.200,215.213 95.320,215.067 95.467 M230.303 144.420 C 230.360 171.469,230.540 193.600,230.703 193.600 C 231.090 193.600,230.883 95.923,230.495 95.535 C 230.333 95.373,230.246 117.371,230.303 144.420 M317.379 96.900 C 313.943 100.579,313.052 101.600,313.279 101.600 C 313.409 101.600,314.813 100.160,316.400 98.400 C 319.410 95.061,320.138 93.946,317.379 96.900 M72.098 144.762 C 72.000 194.102,72.000 194.124,72.800 193.400 C 73.240 193.002,73.595 192.479,73.588 192.238 C 73.581 191.997,73.356 192.160,73.088 192.600 C 72.702 193.233,72.558 183.188,72.398 144.400 L 72.195 95.400 72.098 144.762 M334.667 99.769 C 333.200 101.401,332.000 102.834,332.000 102.952 C 332.000 103.140,333.024 102.054,336.760 97.900 C 337.304 97.295,337.656 96.800,337.542 96.800 C 337.428 96.800,336.135 98.136,334.667 99.769 M155.618 100.934 L 154.237 102.600 155.918 101.019 C 156.843 100.149,157.600 99.384,157.600 99.319 C 157.600 98.859,156.794 99.516,155.618 100.934 M151.818 105.182 L 149.836 107.400 151.999 105.314 C 153.189 104.167,154.080 103.169,153.981 103.097 C 153.881 103.024,152.908 103.963,151.818 105.182 M310.200 104.800 C 309.117 105.900,308.403 106.782,308.615 106.759 C 308.991 106.720,312.680 102.800,312.341 102.800 C 312.247 102.800,311.283 103.700,310.200 104.800 M170.981 106.100 L 169.400 107.800 171.100 106.219 C 172.681 104.748,172.984 104.400,172.681 104.400 C 172.616 104.400,171.851 105.165,170.981 106.100 M148.000 109.269 C 147.230 110.171,146.530 111.110,146.445 111.355 C 146.360 111.600,146.360 111.707,146.445 111.593 C 146.530 111.478,147.402 110.533,148.383 109.493 C 149.364 108.452,149.994 107.606,149.783 107.614 C 149.572 107.622,148.770 108.367,148.000 109.269 M325.800 109.600 C 324.941 110.480,324.377 111.200,324.547 111.200 C 324.718 111.200,325.069 110.967,325.329 110.682 C 328.151 107.580,328.456 106.880,325.800 109.600 M164.628 113.107 C 163.103 114.808,162.623 115.480,163.562 114.600 C 165.132 113.127,167.845 109.990,167.534 110.007 C 167.460 110.011,166.152 111.406,164.628 113.107 M303.493 112.166 C 300.185 115.852,298.338 118.000,298.476 118.000 C 298.739 118.000,304.901 111.165,304.746 111.045 C 304.666 110.983,304.102 111.488,303.493 112.166 M318.222 117.975 L 316.644 119.800 318.403 118.114 C 319.370 117.186,320.080 116.365,319.980 116.288 C 319.881 116.212,319.090 116.971,318.222 117.975 M140.181 118.100 L 138.600 119.800 140.300 118.219 C 141.881 116.748,142.184 116.400,141.881 116.400 C 141.816 116.400,141.051 117.165,140.181 118.100 M159.000 119.200 C 158.368 119.860,158.019 120.390,158.225 120.378 C 158.578 120.357,160.639 118.000,160.305 118.000 C 160.220 118.000,159.632 118.540,159.000 119.200 M136.648 121.838 C 134.637 124.121,134.943 124.100,137.200 121.800 C 138.172 120.810,138.794 120.017,138.583 120.038 C 138.372 120.058,137.502 120.868,136.648 121.838 M294.981 121.700 L 293.400 123.400 295.100 121.819 C 296.681 120.348,296.984 120.000,296.681 120.000 C 296.616 120.000,295.851 120.765,294.981 121.700 M154.975 123.700 L 153.800 125.000 155.100 123.825 C 156.312 122.730,156.584 122.400,156.275 122.400 C 156.206 122.400,155.621 122.985,154.975 123.700 M312.975 123.700 L 311.800 125.000 313.100 123.825 C 313.815 123.179,314.400 122.594,314.400 122.525 C 314.400 122.216,314.070 122.488,312.975 123.700 M134.035 124.740 C 133.725 125.103,132.925 125.985,132.257 126.700 C 131.589 127.415,131.213 127.983,131.422 127.962 C 131.880 127.917,134.984 124.448,134.759 124.233 C 134.672 124.149,134.346 124.378,134.035 124.740 M310.200 126.800 C 309.341 127.680,308.809 128.385,309.019 128.366 C 309.386 128.334,312.265 125.200,311.928 125.200 C 311.837 125.200,311.059 125.920,310.200 126.800 M151.254 127.669 C 150.513 128.511,150.063 129.187,150.254 129.171 C 150.657 129.138,152.978 126.427,152.752 126.255 C 152.668 126.191,151.994 126.827,151.254 127.669 M288.400 128.793 C 288.070 129.213,286.656 130.826,285.259 132.378 C 283.861 133.930,282.793 135.200,282.886 135.200 C 282.979 135.200,284.540 133.580,286.356 131.600 C 288.172 129.620,289.510 128.007,289.329 128.015 C 289.148 128.023,288.730 128.373,288.400 128.793 M129.775 129.700 L 128.600 131.000 129.900 129.825 C 131.112 128.730,131.384 128.400,131.075 128.400 C 131.006 128.400,130.421 128.985,129.775 129.700 M147.600 131.800 C 146.405 133.010,145.601 133.981,145.814 133.957 C 146.194 133.914,150.286 129.600,149.947 129.600 C 149.851 129.600,148.795 130.590,147.600 131.800 M305.009 132.500 C 304.392 133.215,303.327 134.430,302.643 135.199 L 301.400 136.598 302.737 135.399 C 304.069 134.204,306.618 131.200,306.300 131.200 C 306.208 131.200,305.627 131.785,305.009 132.500 M126.033 133.515 C 125.721 133.892,125.094 134.650,124.639 135.200 C 124.183 135.750,124.573 135.488,125.505 134.619 C 126.437 133.749,127.200 132.984,127.200 132.919 C 127.200 132.574,126.529 132.917,126.033 133.515 M143.800 136.000 C 142.941 136.880,142.409 137.585,142.619 137.566 C 142.986 137.534,145.865 134.400,145.528 134.400 C 145.437 134.400,144.659 135.120,143.800 136.000 M119.800 140.458 C 117.820 142.656,116.134 144.642,116.052 144.870 C 115.971 145.098,116.682 144.411,117.632 143.343 C 118.581 142.274,120.443 140.275,121.768 138.900 C 123.093 137.525,124.002 136.414,123.788 136.431 C 123.575 136.448,121.780 138.260,119.800 140.458 M279.370 138.900 C 278.491 139.835,277.430 141.050,277.012 141.600 C 276.295 142.541,277.370 141.478,280.145 138.500 C 280.812 137.785,281.269 137.200,281.162 137.200 C 281.054 137.200,280.248 137.965,279.370 138.900 M296.315 142.100 C 294.649 143.915,293.339 145.457,293.403 145.526 C 293.520 145.654,296.002 143.050,298.384 140.300 C 300.758 137.559,299.388 138.750,296.315 142.100 M136.425 144.169 L 135.050 145.800 136.605 144.313 C 137.460 143.496,138.079 142.762,137.980 142.683 C 137.881 142.603,137.181 143.272,136.425 144.169 M273.800 144.950 C 273.580 145.209,271.807 147.171,269.861 149.310 C 267.915 151.450,266.412 153.200,266.521 153.200 C 266.844 153.200,274.530 144.796,274.358 144.631 C 274.271 144.548,274.020 144.692,273.800 144.950 M113.781 147.300 L 112.200 149.000 113.900 147.419 C 115.481 145.948,115.784 145.600,115.481 145.600 C 115.416 145.600,114.651 146.365,113.781 147.300 M132.613 148.343 L 130.626 150.600 132.913 148.414 C 134.171 147.211,135.200 146.176,135.200 146.114 C 135.200 145.648,134.311 146.415,132.613 148.343 M287.785 151.700 L 285.800 153.800 287.900 151.815 C 289.851 149.971,290.183 149.600,289.885 149.600 C 289.822 149.600,288.877 150.545,287.785 151.700 M110.026 151.322 L 109.051 152.600 110.326 151.425 C 111.651 150.203,111.803 149.985,111.300 150.022 C 111.135 150.034,110.562 150.619,110.026 151.322 M128.200 153.200 C 127.341 154.080,126.777 154.800,126.947 154.800 C 127.118 154.800,127.469 154.567,127.729 154.282 C 130.551 151.180,130.856 150.480,128.200 153.200 M106.010 155.790 C 104.820 156.995,103.926 158.036,104.023 158.105 C 104.121 158.173,105.174 157.188,106.363 155.915 C 109.106 152.981,108.867 152.897,106.010 155.790 M264.200 155.600 C 263.117 156.700,262.403 157.582,262.615 157.559 C 262.991 157.520,266.680 153.600,266.341 153.600 C 266.247 153.600,265.283 154.500,264.200 155.600 M283.429 156.362 L 282.258 157.800 283.609 156.513 C 284.351 155.805,284.878 155.158,284.779 155.075 C 284.681 154.992,284.073 155.571,283.429 156.362 M279.637 160.445 C 278.447 161.740,277.604 162.800,277.765 162.800 C 277.926 162.800,278.269 162.563,278.529 162.273 C 278.788 161.984,279.802 160.904,280.783 159.873 C 281.764 158.843,282.394 158.020,282.183 158.045 C 281.972 158.070,280.826 159.150,279.637 160.445 M102.300 159.817 C 101.695 160.528,101.200 161.226,101.200 161.369 C 101.200 161.511,101.764 160.986,102.453 160.200 C 103.143 159.415,103.638 158.717,103.553 158.649 C 103.469 158.580,102.905 159.106,102.300 159.817 M120.818 161.334 L 119.437 163.000 121.118 161.419 C 122.043 160.549,122.800 159.784,122.800 159.719 C 122.800 159.259,121.994 159.916,120.818 161.334 M258.035 162.315 C 257.725 162.692,256.916 163.630,256.238 164.400 C 255.560 165.170,255.949 164.907,257.103 163.815 C 258.256 162.723,259.200 161.778,259.200 161.715 C 259.200 161.373,258.526 161.720,258.035 162.315 M97.800 164.800 C 96.717 165.900,96.003 166.782,96.215 166.759 C 96.591 166.720,100.280 162.800,99.941 162.800 C 99.847 162.800,98.883 163.700,97.800 164.800 M117.007 165.593 C 116.152 166.469,115.530 167.245,115.626 167.318 C 115.722 167.391,116.498 166.674,117.352 165.725 C 119.301 163.559,119.077 163.473,117.007 165.593 M274.611 166.100 C 273.994 166.815,272.749 168.210,271.845 169.200 L 270.200 170.999 271.934 169.400 C 273.609 167.855,276.242 164.800,275.900 164.800 C 275.808 164.800,275.228 165.385,274.611 166.100 M253.048 167.838 C 251.037 170.121,251.343 170.100,253.600 167.800 C 254.572 166.810,255.194 166.017,254.983 166.038 C 254.772 166.058,253.902 166.868,253.048 167.838 M94.575 168.500 L 93.400 169.800 94.700 168.625 C 95.912 167.530,96.184 167.200,95.875 167.200 C 95.806 167.200,95.221 167.785,94.575 168.500 M113.208 169.792 C 112.241 170.777,111.529 171.641,111.625 171.713 C 111.721 171.784,112.590 170.978,113.557 169.921 C 115.771 167.500,115.541 167.414,113.208 169.792 M90.960 172.329 C 89.838 173.578,88.325 175.320,87.599 176.200 C 86.161 177.942,85.890 178.209,91.756 172.100 C 92.865 170.945,93.599 170.013,93.386 170.029 C 93.174 170.044,92.082 171.079,90.960 172.329 M249.200 172.072 C 248.210 173.187,247.330 174.302,247.245 174.550 C 247.160 174.797,247.160 174.906,247.245 174.791 C 247.330 174.676,248.384 173.551,249.586 172.291 C 250.789 171.031,251.599 170.010,251.386 170.022 C 251.174 170.035,250.190 170.957,249.200 172.072 M265.659 176.000 C 263.616 178.200,262.053 180.000,262.186 180.000 C 262.415 180.000,264.877 177.412,268.180 173.700 C 271.057 170.467,269.361 172.015,265.659 176.000 M105.643 178.041 C 104.677 179.118,104.016 180.000,104.174 180.000 C 104.535 180.000,107.575 176.707,107.589 176.300 C 107.605 175.862,107.563 175.900,105.643 178.041 M83.344 180.790 C 80.683 183.619,77.811 187.054,79.659 185.200 C 82.458 182.389,86.112 178.386,85.966 178.289 C 85.875 178.229,84.695 179.354,83.344 180.790 M242.435 179.515 C 242.125 179.892,241.325 180.785,240.657 181.500 C 239.989 182.215,239.613 182.782,239.822 182.759 C 240.317 182.706,243.822 178.795,243.357 178.815 C 243.160 178.824,242.746 179.139,242.435 179.515 M99.085 185.371 C 97.388 187.225,96.000 188.853,96.000 188.989 C 96.000 189.317,97.288 187.985,100.149 184.698 C 103.442 180.915,102.780 181.334,99.085 185.371 M237.580 185.100 C 234.212 188.676,233.043 190.000,233.257 190.000 C 233.374 190.000,234.863 188.470,236.565 186.600 C 238.268 184.730,239.595 183.200,239.515 183.200 C 239.435 183.200,238.564 184.055,237.580 185.100 M256.981 185.700 L 255.400 187.400 257.100 185.819 C 258.681 184.348,258.984 184.000,258.681 184.000 C 258.616 184.000,257.851 184.765,256.981 185.700 M75.775 189.300 L 74.600 190.600 75.900 189.425 C 76.615 188.779,77.200 188.194,77.200 188.125 C 77.200 187.816,76.870 188.088,75.775 189.300 M253.100 189.817 C 252.495 190.528,252.000 191.226,252.000 191.369 C 252.000 191.511,252.564 190.986,253.253 190.200 C 253.943 189.415,254.438 188.717,254.353 188.649 C 254.269 188.580,253.705 189.106,253.100 189.817 M232.001 191.398 C 231.486 191.948,231.152 192.485,231.260 192.594 C 231.368 192.702,231.854 192.252,232.340 191.595 C 233.417 190.139,233.266 190.052,232.001 191.398 M249.237 194.085 C 248.047 195.358,247.237 196.381,247.437 196.357 C 247.869 196.306,251.800 192.043,251.563 191.882 C 251.474 191.821,250.426 192.812,249.237 194.085 M90.418 194.934 L 89.037 196.600 90.718 195.019 C 91.643 194.149,92.400 193.384,92.400 193.319 C 92.400 192.859,91.594 193.516,90.418 194.934 M88.638 197.139 C 88.523 197.325,89.007 198.000,89.714 198.639 L 91.000 199.800 89.894 198.572 C 89.286 197.897,88.911 197.222,89.061 197.072 C 89.211 196.923,89.224 196.800,89.090 196.800 C 88.957 196.800,88.753 196.952,88.638 197.139 M72.098 253.100 L 72.197 305.400 72.300 253.500 C 72.372 217.419,72.532 201.600,72.825 201.600 C 73.057 201.600,73.136 201.420,73.000 201.200 C 72.864 200.980,72.583 200.800,72.376 200.800 C 72.143 200.800,72.037 220.617,72.098 253.100 M91.600 200.925 C 91.600 200.994,92.173 201.579,92.874 202.225 L 94.149 203.400 93.174 202.122 C 92.347 201.037,91.600 200.469,91.600 200.925 M230.303 253.380 C 230.246 282.079,230.334 305.426,230.497 305.263 C 230.886 304.874,231.091 201.200,230.703 201.200 C 230.540 201.200,230.360 224.681,230.303 253.380 M252.573 204.000 C 255.300 207.071,255.948 207.674,254.506 205.800 C 253.828 204.920,252.677 203.660,251.947 203.000 C 251.176 202.303,251.439 202.723,252.573 204.000 M74.412 203.798 C 75.350 205.072,76.000 205.686,76.000 205.298 C 76.000 205.101,75.510 204.503,74.912 203.970 C 74.114 203.258,73.981 203.213,74.412 203.798 M232.400 203.500 C 232.400 203.725,233.525 205.066,234.900 206.480 C 236.275 207.894,236.664 208.229,235.765 207.225 C 234.866 206.221,233.741 204.881,233.265 204.246 C 232.789 203.611,232.400 203.276,232.400 203.500 M95.220 204.735 C 95.230 204.881,96.715 206.532,98.520 208.404 C 100.324 210.276,101.350 211.267,100.800 210.606 C 99.089 208.548,95.199 204.456,95.220 204.735 M78.649 208.425 C 79.988 210.253,81.629 212.104,81.775 211.950 C 81.854 211.868,81.013 210.810,79.908 209.600 C 78.803 208.390,78.237 207.861,78.649 208.425 M259.617 211.893 C 260.598 212.933,261.445 213.863,261.500 213.959 C 261.555 214.055,261.675 214.058,261.767 213.966 C 261.981 213.752,258.549 210.000,258.140 210.000 C 257.971 210.000,258.636 210.852,259.617 211.893 M241.800 214.400 C 242.659 215.280,243.437 216.000,243.528 216.000 C 243.865 216.000,240.986 212.866,240.619 212.834 C 240.409 212.815,240.941 213.520,241.800 214.400 M84.000 214.600 C 84.746 215.370,85.447 216.000,85.557 216.000 C 85.667 216.000,85.146 215.370,84.400 214.600 C 83.654 213.830,82.953 213.200,82.843 213.200 C 82.733 213.200,83.254 213.830,84.000 214.600 M105.000 215.600 C 106.083 216.700,107.060 217.600,107.170 217.600 C 107.280 217.600,106.483 216.700,105.400 215.600 C 104.317 214.500,103.340 213.600,103.230 213.600 C 103.120 213.600,103.917 214.500,105.000 215.600 M263.400 216.000 C 264.259 216.880,265.052 217.600,265.162 217.600 C 265.272 217.600,264.659 216.880,263.800 216.000 C 262.941 215.120,262.148 214.400,262.038 214.400 C 261.928 214.400,262.541 215.120,263.400 216.000 M86.802 217.776 C 89.130 220.401,89.200 220.469,89.200 220.112 C 89.200 219.922,88.346 218.964,87.302 217.983 C 85.489 216.280,85.466 216.271,86.802 217.776 M245.201 218.200 C 245.751 218.860,246.245 219.475,246.300 219.567 C 246.355 219.658,246.488 219.645,246.596 219.538 C 246.704 219.430,246.209 218.815,245.497 218.171 L 244.203 217.000 245.201 218.200 M266.400 219.050 C 266.400 219.189,267.030 220.000,267.800 220.853 C 268.570 221.705,269.200 222.289,269.200 222.150 C 269.200 222.011,268.570 221.200,267.800 220.347 C 267.030 219.495,266.400 218.911,266.400 219.050 M248.618 222.018 C 249.708 223.237,250.681 224.176,250.781 224.103 C 250.880 224.031,249.989 223.033,248.799 221.886 L 246.636 219.800 248.618 222.018 M113.458 225.000 C 116.602 228.435,117.981 229.667,115.584 226.900 C 113.297 224.260,110.774 221.600,110.557 221.600 C 110.441 221.600,111.747 223.130,113.458 225.000 M93.254 225.166 C 93.994 226.028,94.756 226.748,94.946 226.766 C 95.137 226.785,94.687 226.095,93.946 225.234 C 93.206 224.372,92.444 223.652,92.254 223.634 C 92.063 223.615,92.513 224.305,93.254 225.166 M252.396 226.200 C 254.339 228.556,257.264 231.671,257.396 231.526 C 257.459 231.457,256.063 229.870,254.293 228.000 C 252.524 226.130,251.670 225.320,252.396 226.200 M274.417 228.293 C 275.398 229.333,276.245 230.263,276.300 230.359 C 276.355 230.455,276.475 230.458,276.567 230.366 C 276.781 230.152,273.349 226.400,272.940 226.400 C 272.771 226.400,273.436 227.252,274.417 228.293 M97.896 230.200 C 98.574 231.080,99.816 232.430,100.655 233.200 C 101.653 234.116,101.435 233.770,100.023 232.200 C 97.033 228.874,96.454 228.330,97.896 230.200 M120.400 232.593 C 121.390 233.688,122.245 234.663,122.300 234.759 C 122.355 234.855,122.486 234.847,122.591 234.743 C 122.696 234.638,121.841 233.663,120.691 232.576 L 118.600 230.600 120.400 232.593 M278.600 232.800 C 279.683 233.900,280.660 234.800,280.770 234.800 C 280.880 234.800,280.083 233.900,279.000 232.800 C 277.917 231.700,276.940 230.800,276.830 230.800 C 276.720 230.800,277.517 231.700,278.600 232.800 M258.401 233.000 C 258.951 233.660,259.445 234.275,259.500 234.367 C 259.555 234.458,259.688 234.445,259.796 234.338 C 259.904 234.230,259.409 233.615,258.697 232.971 L 257.403 231.800 258.401 233.000 M102.000 234.925 C 102.000 234.994,102.585 235.579,103.300 236.225 L 104.600 237.400 103.425 236.100 C 102.330 234.888,102.000 234.616,102.000 234.925 M261.800 236.800 C 262.883 237.900,263.860 238.800,263.970 238.800 C 264.080 238.800,263.283 237.900,262.200 236.800 C 261.117 235.700,260.140 234.800,260.030 234.800 C 259.920 234.800,260.717 235.700,261.800 236.800 M281.200 235.450 C 281.200 235.589,281.830 236.400,282.600 237.253 C 283.370 238.105,284.000 238.689,284.000 238.550 C 284.000 238.411,283.370 237.600,282.600 236.747 C 281.830 235.895,281.200 235.311,281.200 235.450 M106.017 239.473 C 106.998 240.504,108.034 241.605,108.319 241.921 C 108.605 242.237,108.907 242.427,108.991 242.343 C 109.174 242.159,104.840 237.600,104.483 237.600 C 104.346 237.600,105.036 238.443,106.017 239.473 M127.643 240.759 C 128.610 241.837,129.560 242.737,129.757 242.759 C 129.953 242.782,129.323 241.918,128.357 240.841 C 127.390 239.763,126.440 238.863,126.243 238.841 C 126.047 238.818,126.677 239.682,127.643 240.759 M284.400 239.052 C 284.400 239.264,285.165 240.149,286.100 241.019 L 287.800 242.600 286.200 240.806 C 285.320 239.820,284.555 238.935,284.500 238.839 C 284.445 238.744,284.400 238.840,284.400 239.052 M265.000 240.378 C 265.440 240.936,265.890 241.485,266.000 241.597 C 266.110 241.708,267.145 242.824,268.300 244.076 C 269.455 245.328,270.392 246.228,270.383 246.076 C 270.373 245.924,268.978 244.352,267.283 242.582 C 265.587 240.812,264.560 239.820,265.000 240.378 M111.094 245.000 C 111.772 245.880,112.923 247.140,113.653 247.800 C 114.424 248.497,114.161 248.077,113.027 246.800 C 110.300 243.729,109.652 243.126,111.094 245.000 M289.200 244.525 C 289.200 244.594,289.773 245.179,290.474 245.825 L 291.749 247.000 290.774 245.722 C 289.947 244.637,289.200 244.069,289.200 244.525 M271.601 247.800 C 272.151 248.460,272.645 249.075,272.700 249.167 C 272.755 249.258,272.888 249.245,272.996 249.138 C 273.104 249.030,272.609 248.415,271.897 247.771 L 270.603 246.600 271.601 247.800 M135.400 249.200 C 136.483 250.300,137.460 251.200,137.570 251.200 C 137.680 251.200,136.883 250.300,135.800 249.200 C 134.717 248.100,133.740 247.200,133.630 247.200 C 133.520 247.200,134.317 248.100,135.400 249.200 M293.800 249.600 C 295.106 250.920,296.265 252.000,296.375 252.000 C 296.485 252.000,295.506 250.920,294.200 249.600 C 292.894 248.280,291.735 247.200,291.625 247.200 C 291.515 247.200,292.494 248.280,293.800 249.600 M116.615 251.178 C 118.111 253.055,121.200 256.369,121.186 256.083 C 121.179 255.927,119.964 254.530,118.486 252.978 C 117.009 251.426,116.167 250.616,116.615 251.178 M274.000 250.525 C 274.000 250.594,274.585 251.179,275.300 251.825 L 276.600 253.000 275.425 251.700 C 274.330 250.488,274.000 250.216,274.000 250.525 M296.400 252.525 C 296.400 252.594,296.973 253.179,297.674 253.825 L 298.949 255.000 297.974 253.722 C 297.147 252.637,296.400 252.069,296.400 252.525 M278.001 255.000 C 278.551 255.660,279.045 256.275,279.100 256.367 C 279.155 256.458,279.288 256.445,279.396 256.338 C 279.504 256.230,279.009 255.615,278.297 254.971 L 277.003 253.800 278.001 255.000 M299.200 255.448 C 299.200 255.658,300.145 256.723,301.300 257.815 L 303.400 259.800 301.400 257.608 C 300.300 256.403,299.355 255.338,299.300 255.242 C 299.245 255.145,299.200 255.238,299.200 255.448 M142.801 257.396 C 143.570 258.273,144.245 259.068,144.300 259.162 C 144.355 259.256,144.487 259.247,144.593 259.141 C 144.699 259.035,144.024 258.240,143.093 257.374 L 141.401 255.800 142.801 257.396 M125.643 261.559 C 126.610 262.637,127.560 263.537,127.757 263.559 C 127.953 263.582,127.323 262.718,126.357 261.641 C 125.390 260.563,124.440 259.663,124.243 259.641 C 124.047 259.618,124.677 260.482,125.643 261.559 M283.203 260.699 C 283.204 260.864,284.599 262.452,286.303 264.228 C 288.006 266.003,288.670 266.633,287.778 265.628 C 286.885 264.622,285.490 263.034,284.678 262.099 C 283.865 261.163,283.201 260.533,283.203 260.699 M304.000 260.925 C 304.000 260.994,304.573 261.579,305.274 262.225 L 306.549 263.400 305.574 262.122 C 304.747 261.037,304.000 260.469,304.000 260.925 M149.217 264.309 C 149.227 264.469,150.262 265.685,151.517 267.012 C 153.983 269.617,153.614 268.974,150.884 265.909 C 149.958 264.869,149.208 264.149,149.217 264.309 M308.000 265.325 C 308.000 265.394,308.585 265.979,309.300 266.625 L 310.600 267.800 309.425 266.500 C 308.330 265.288,308.000 265.016,308.000 265.325 M132.200 268.800 C 133.283 269.900,134.247 270.800,134.341 270.800 C 134.680 270.800,130.991 266.880,130.615 266.841 C 130.403 266.818,131.117 267.700,132.200 268.800 M290.801 269.396 C 291.570 270.273,292.245 271.068,292.300 271.162 C 292.355 271.256,292.487 271.247,292.593 271.141 C 292.699 271.035,292.024 270.240,291.093 269.374 L 289.401 267.800 290.801 269.396 M311.200 268.925 C 311.200 268.994,311.773 269.579,312.474 270.225 L 313.749 271.400 312.774 270.122 C 311.947 269.037,311.200 268.469,311.200 268.925 M134.800 271.461 C 134.800 271.607,136.104 273.183,137.698 274.963 C 141.554 279.269,141.600 279.315,141.600 278.878 C 141.600 278.669,141.301 278.251,140.936 277.949 C 140.571 277.647,139.041 276.004,137.536 274.297 C 136.031 272.591,134.800 271.314,134.800 271.461 M157.622 273.896 C 158.380 274.718,159.045 275.468,159.100 275.562 C 159.155 275.656,159.277 275.657,159.371 275.563 C 159.592 275.342,156.978 272.400,156.561 272.400 C 156.386 272.400,156.863 273.073,157.622 273.896 M316.400 274.600 C 317.595 275.810,318.663 276.800,318.773 276.800 C 318.883 276.800,317.995 275.810,316.800 274.600 C 315.605 273.390,314.537 272.400,314.427 272.400 C 314.317 272.400,315.205 273.390,316.400 274.600 M296.412 275.506 C 296.427 275.897,298.818 278.515,298.997 278.337 C 299.073 278.260,298.520 277.526,297.768 276.705 C 297.016 275.883,296.405 275.344,296.412 275.506 M318.800 277.325 C 318.800 277.394,319.373 277.979,320.074 278.625 L 321.349 279.800 320.374 278.522 C 319.547 277.437,318.800 276.869,318.800 277.325 M301.029 280.838 C 301.673 281.629,302.281 282.208,302.379 282.125 C 302.478 282.042,301.951 281.395,301.209 280.687 L 299.858 279.400 301.029 280.838 M164.010 280.717 C 164.016 280.873,165.591 282.631,167.510 284.625 C 169.430 286.619,170.272 287.429,169.383 286.425 C 165.526 282.074,164.001 280.453,164.010 280.717 M145.400 283.600 C 146.483 284.700,147.447 285.600,147.541 285.600 C 147.880 285.600,144.191 281.680,143.815 281.641 C 143.603 281.618,144.317 282.500,145.400 283.600 M322.800 281.725 C 322.800 281.794,323.385 282.379,324.100 283.025 L 325.400 284.200 324.225 282.900 C 323.130 281.688,322.800 281.416,322.800 281.725 M303.607 283.777 C 305.286 285.765,306.400 286.852,306.400 286.501 C 306.400 286.317,305.548 285.364,304.507 284.383 C 303.465 283.402,303.060 283.129,303.607 283.777 M148.814 287.385 C 150.711 289.659,154.000 293.153,153.983 292.876 C 153.973 292.724,152.578 291.153,150.883 289.385 C 149.187 287.617,148.256 286.717,148.814 287.385 M172.422 290.296 C 173.180 291.118,173.845 291.868,173.900 291.962 C 173.955 292.056,174.077 292.057,174.171 291.963 C 174.392 291.742,171.778 288.800,171.361 288.800 C 171.186 288.800,171.663 289.473,172.422 290.296 M332.258 292.200 C 333.969 294.070,335.449 295.600,335.547 295.600 C 335.742 295.600,334.969 294.670,332.731 292.213 C 331.923 291.326,330.912 290.195,330.484 289.700 C 330.056 289.205,329.580 288.800,329.426 288.800 C 329.272 288.800,330.547 290.330,332.258 292.200 M310.030 291.082 C 311.864 293.127,312.038 293.295,312.187 293.146 C 312.375 292.959,309.683 290.000,309.325 290.000 C 309.180 290.000,309.497 290.487,310.030 291.082 M315.094 296.600 C 315.772 297.480,316.923 298.740,317.653 299.400 C 318.424 300.097,318.161 299.677,317.027 298.400 C 314.300 295.329,313.652 294.726,315.094 296.600 M158.600 298.400 C 159.683 299.500,160.660 300.400,160.770 300.400 C 160.880 300.400,160.083 299.500,159.000 298.400 C 157.917 297.300,156.940 296.400,156.830 296.400 C 156.720 296.400,157.517 297.300,158.600 298.400 M181.951 300.745 C 183.510 302.475,185.103 304.140,185.491 304.445 C 185.879 304.750,184.687 303.335,182.842 301.300 C 180.997 299.265,179.404 297.600,179.302 297.600 C 179.199 297.600,180.391 299.015,181.951 300.745 M338.400 298.925 C 338.400 298.994,338.985 299.579,339.700 300.225 L 341.000 301.400 339.825 300.100 C 338.730 298.888,338.400 298.616,338.400 298.925 M161.601 301.800 C 162.151 302.460,162.645 303.075,162.700 303.167 C 162.755 303.258,162.888 303.245,162.996 303.138 C 163.104 303.030,162.609 302.415,161.897 301.771 L 160.603 300.600 161.601 301.800 M319.200 301.325 C 319.200 301.394,319.785 301.979,320.500 302.625 L 321.800 303.800 320.625 302.500 C 319.530 301.288,319.200 301.016,319.200 301.325 M333.600 305.600 L 323.400 305.821 333.476 305.910 C 339.861 305.967,343.643 305.853,343.800 305.600 C 343.936 305.380,343.992 305.240,343.924 305.290 C 343.856 305.339,339.210 305.479,333.600 305.600 M61.720 305.898 C 63.655 305.972,66.715 305.971,68.520 305.897 C 70.324 305.823,68.740 305.763,65.000 305.764 C 61.260 305.764,59.784 305.825,61.720 305.898 M170.723 305.899 C 173.431 305.968,177.751 305.968,180.323 305.899 C 182.895 305.829,180.680 305.772,175.400 305.773 C 170.120 305.773,168.015 305.830,170.723 305.899 M219.320 305.898 C 221.255 305.972,224.315 305.971,226.120 305.897 C 227.924 305.823,226.340 305.763,222.600 305.764 C 218.860 305.764,217.384 305.825,219.320 305.898 " stroke="none" fill="#361a14" fill-rule="evenodd"></path><path id="path4" d="M160.749 95.900 C 160.272 96.509,160.278 96.540,160.800 96.143 C 161.130 95.892,161.760 95.598,162.200 95.489 C 162.960 95.303,162.957 95.290,162.149 95.246 C 161.681 95.221,161.051 95.515,160.749 95.900 M225.900 95.489 C 226.615 95.578,227.785 95.578,228.500 95.489 C 229.215 95.401,228.630 95.328,227.200 95.328 C 225.770 95.328,225.185 95.401,225.900 95.489 M322.600 95.478 C 330.490 95.763,338.309 95.774,338.139 95.500 C 338.037 95.335,333.778 95.237,328.676 95.281 C 323.574 95.326,320.840 95.415,322.600 95.478 M336.175 97.700 L 335.000 99.000 336.300 97.825 C 337.015 97.179,337.600 96.594,337.600 96.525 C 337.600 96.216,337.270 96.488,336.175 97.700 M314.000 101.200 C 311.972 103.400,310.402 105.200,310.512 105.200 C 310.622 105.200,312.372 103.400,314.400 101.200 C 316.428 99.000,317.998 97.200,317.888 97.200 C 317.778 97.200,316.028 99.000,314.000 101.200 M332.175 102.100 L 331.000 103.400 332.300 102.225 C 333.015 101.579,333.600 100.994,333.600 100.925 C 333.600 100.616,333.270 100.888,332.175 102.100 M328.581 106.100 L 327.000 107.800 328.700 106.219 C 330.281 104.748,330.584 104.400,330.281 104.400 C 330.216 104.400,329.451 105.165,328.581 106.100 M307.578 108.300 L 306.200 109.800 307.700 108.422 C 309.096 107.138,309.384 106.800,309.078 106.800 C 309.012 106.800,308.337 107.475,307.578 108.300 M303.978 112.300 L 302.600 113.800 304.100 112.422 C 305.496 111.138,305.784 110.800,305.478 110.800 C 305.412 110.800,304.737 111.475,303.978 112.300 M320.575 114.900 L 319.400 116.200 320.700 115.025 C 321.415 114.379,322.000 113.794,322.000 113.725 C 322.000 113.416,321.670 113.688,320.575 114.900 M300.175 116.500 L 299.000 117.800 300.300 116.625 C 301.015 115.979,301.600 115.394,301.600 115.325 C 301.600 115.016,301.270 115.288,300.175 116.500 M317.375 118.500 L 316.200 119.800 317.500 118.625 C 318.215 117.979,318.800 117.394,318.800 117.325 C 318.800 117.016,318.470 117.288,317.375 118.500 M296.378 120.700 L 295.000 122.200 296.500 120.822 C 297.896 119.538,298.184 119.200,297.878 119.200 C 297.812 119.200,297.137 119.875,296.378 120.700 M313.375 122.900 L 312.200 124.200 313.500 123.025 C 314.215 122.379,314.800 121.794,314.800 121.725 C 314.800 121.416,314.470 121.688,313.375 122.900 M288.575 129.300 L 287.400 130.600 288.700 129.425 C 289.415 128.779,290.000 128.194,290.000 128.125 C 290.000 127.816,289.670 128.088,288.575 129.300 M304.975 132.100 L 303.800 133.400 305.100 132.225 C 305.815 131.579,306.400 130.994,306.400 130.925 C 306.400 130.616,306.070 130.888,304.975 132.100 M301.775 135.700 L 300.600 137.000 301.900 135.825 C 302.615 135.179,303.200 134.594,303.200 134.525 C 303.200 134.216,302.870 134.488,301.775 135.700 M280.778 137.900 L 279.400 139.400 280.900 138.022 C 282.296 136.738,282.584 136.400,282.278 136.400 C 282.212 136.400,281.537 137.075,280.778 137.900 M290.175 148.500 L 289.000 149.800 290.300 148.625 C 291.015 147.979,291.600 147.394,291.600 147.325 C 291.600 147.016,291.270 147.288,290.175 148.500 " stroke="none" fill="#744424" fill-rule="evenodd"></path><path id="path5" d="M64.700 95.494 L 71.600 95.619 71.600 144.986 C 71.600 172.389,71.754 194.448,71.947 194.567 C 72.137 194.685,72.632 194.380,73.047 193.891 L 73.800 193.000 72.902 193.761 L 72.003 194.521 71.902 144.961 L 71.800 95.400 64.800 95.385 L 57.800 95.370 64.700 95.494 M166.922 95.499 C 169.299 95.570,173.079 95.569,175.322 95.498 C 177.565 95.427,175.620 95.369,171.000 95.369 C 166.380 95.370,164.545 95.428,166.922 95.499 M216.500 95.476 C 216.885 95.576,217.515 95.576,217.900 95.476 C 218.285 95.375,217.970 95.293,217.200 95.293 C 216.430 95.293,216.115 95.375,216.500 95.476 M220.305 95.483 C 220.802 95.579,221.522 95.575,221.905 95.475 C 222.287 95.375,221.880 95.296,221.000 95.301 C 220.120 95.305,219.807 95.387,220.305 95.483 M57.299 200.433 L 57.400 305.400 64.600 305.400 L 71.800 305.400 72.000 252.816 L 72.200 200.232 73.578 202.016 C 74.337 202.997,75.687 204.612,76.578 205.604 C 77.470 206.596,78.796 208.100,79.525 208.946 C 80.253 209.792,80.914 210.419,80.993 210.340 C 81.072 210.261,80.411 209.387,79.524 208.398 C 78.637 207.409,77.347 205.970,76.656 205.200 C 75.965 204.430,74.770 202.951,74.000 201.913 C 73.230 200.876,72.420 200.081,72.200 200.147 C 71.937 200.226,71.765 218.190,71.699 252.733 L 71.597 305.200 64.804 305.200 L 58.011 305.200 57.905 277.300 C 57.847 261.955,57.752 214.852,57.694 172.628 C 57.636 130.403,57.501 95.768,57.394 95.660 C 57.286 95.553,57.244 142.700,57.299 200.433 M229.698 144.900 L 229.600 194.400 230.500 194.354 C 231.175 194.319,231.225 194.262,230.702 194.125 C 230.042 193.952,229.997 191.167,229.900 144.671 L 229.797 95.400 229.698 144.900 M158.778 98.300 L 157.400 99.800 158.900 98.422 C 159.725 97.663,160.400 96.988,160.400 96.922 C 160.400 96.616,160.062 96.904,158.778 98.300 M171.978 104.300 L 170.600 105.800 172.100 104.422 C 172.925 103.663,173.600 102.988,173.600 102.922 C 173.600 102.616,173.262 102.904,171.978 104.300 M151.381 106.500 L 149.800 108.200 151.500 106.619 C 153.081 105.148,153.384 104.800,153.081 104.800 C 153.016 104.800,152.251 105.565,151.381 106.500 M146.778 111.500 L 145.400 113.000 146.900 111.622 C 147.725 110.863,148.400 110.188,148.400 110.122 C 148.400 109.816,148.062 110.104,146.778 111.500 M164.581 112.500 L 163.000 114.200 164.700 112.619 C 166.281 111.148,166.584 110.800,166.281 110.800 C 166.216 110.800,165.451 111.565,164.581 112.500 M302.575 114.100 L 301.400 115.400 302.700 114.225 C 303.415 113.579,304.000 112.994,304.000 112.925 C 304.000 112.616,303.670 112.888,302.575 114.100 M142.981 115.700 L 141.400 117.400 143.100 115.819 C 144.681 114.348,144.984 114.000,144.681 114.000 C 144.616 114.000,143.851 114.765,142.981 115.700 M160.975 116.500 L 159.800 117.800 161.100 116.625 C 161.815 115.979,162.400 115.394,162.400 115.325 C 162.400 115.016,162.070 115.288,160.975 116.500 M138.575 120.500 L 137.400 121.800 138.700 120.625 C 139.912 119.530,140.184 119.200,139.875 119.200 C 139.806 119.200,139.221 119.785,138.575 120.500 M156.975 120.900 L 155.800 122.200 157.100 121.025 C 158.312 119.930,158.584 119.600,158.275 119.600 C 158.206 119.600,157.621 120.185,156.975 120.900 M294.575 122.900 L 293.400 124.200 294.700 123.025 C 295.415 122.379,296.000 121.794,296.000 121.725 C 296.000 121.416,295.670 121.688,294.575 122.900 M135.385 124.100 L 133.400 126.200 135.500 124.215 C 137.451 122.371,137.783 122.000,137.485 122.000 C 137.422 122.000,136.477 122.945,135.385 124.100 M152.981 125.300 L 151.400 127.000 153.100 125.419 C 154.681 123.948,154.984 123.600,154.681 123.600 C 154.616 123.600,153.851 124.365,152.981 125.300 M131.600 128.200 C 130.628 129.190,130.006 129.983,130.217 129.962 C 130.589 129.926,133.873 126.400,133.535 126.400 C 133.442 126.400,132.572 127.210,131.600 128.200 M149.178 129.500 L 147.800 131.000 149.300 129.622 C 150.125 128.863,150.800 128.188,150.800 128.122 C 150.800 127.816,150.462 128.104,149.178 129.500 M286.975 131.300 L 285.800 132.600 287.100 131.425 C 287.815 130.779,288.400 130.194,288.400 130.125 C 288.400 129.816,288.070 130.088,286.975 131.300 M127.610 132.590 C 126.420 133.795,125.526 134.836,125.623 134.905 C 125.721 134.973,126.774 133.988,127.963 132.715 C 130.706 129.781,130.467 129.697,127.610 132.590 M146.175 132.900 L 145.000 134.200 146.300 133.025 C 147.512 131.930,147.784 131.600,147.475 131.600 C 147.406 131.600,146.821 132.185,146.175 132.900 M123.775 136.900 L 122.600 138.200 123.900 137.025 C 124.615 136.379,125.200 135.794,125.200 135.725 C 125.200 135.416,124.870 135.688,123.775 136.900 M141.625 137.769 L 140.250 139.400 141.805 137.913 C 142.660 137.096,143.279 136.362,143.180 136.283 C 143.081 136.203,142.381 136.872,141.625 137.769 M279.381 139.700 L 277.800 141.400 279.500 139.819 C 281.081 138.348,281.384 138.000,281.081 138.000 C 281.016 138.000,280.251 138.765,279.381 139.700 M120.415 140.541 L 118.629 142.600 120.715 140.615 C 121.862 139.523,122.800 138.578,122.800 138.515 C 122.800 138.051,121.938 138.783,120.415 140.541 M137.978 141.900 L 136.600 143.400 138.100 142.022 C 138.925 141.263,139.600 140.588,139.600 140.522 C 139.600 140.216,139.262 140.504,137.978 141.900 M117.133 143.975 C 117.060 144.182,115.479 146.027,113.620 148.075 C 111.762 150.124,110.745 151.350,111.361 150.800 C 113.320 149.051,118.101 143.600,117.676 143.600 C 117.451 143.600,117.207 143.769,117.133 143.975 M133.643 146.441 C 132.677 147.518,132.047 148.382,132.243 148.359 C 132.440 148.337,133.390 147.437,134.357 146.359 C 135.323 145.282,135.953 144.418,135.757 144.441 C 135.560 144.463,134.610 145.363,133.643 146.441 M271.375 148.500 L 270.200 149.800 271.500 148.625 C 272.215 147.979,272.800 147.394,272.800 147.325 C 272.800 147.016,272.470 147.288,271.375 148.500 M130.181 150.500 L 128.600 152.200 130.300 150.619 C 131.881 149.148,132.184 148.800,131.881 148.800 C 131.816 148.800,131.051 149.565,130.181 150.500 M287.578 151.100 L 286.200 152.600 287.700 151.222 C 289.096 149.938,289.384 149.600,289.078 149.600 C 289.012 149.600,288.337 150.275,287.578 151.100 M267.978 152.300 L 266.600 153.800 268.100 152.422 C 269.496 151.138,269.784 150.800,269.478 150.800 C 269.412 150.800,268.737 151.475,267.978 152.300 M106.209 156.200 C 104.070 158.510,102.503 160.400,102.727 160.400 C 102.950 160.400,103.193 160.232,103.267 160.027 C 103.340 159.821,104.469 158.516,105.776 157.127 C 109.974 152.662,110.561 152.000,110.328 152.000 C 110.202 152.000,108.348 153.890,106.209 156.200 M127.635 153.140 C 127.325 153.503,126.519 154.430,125.844 155.200 C 125.109 156.039,125.408 155.844,126.589 154.714 C 127.674 153.677,128.480 152.750,128.381 152.654 C 128.281 152.559,127.946 152.778,127.635 153.140 M263.375 157.300 L 262.200 158.600 263.500 157.425 C 264.215 156.779,264.800 156.194,264.800 156.125 C 264.800 155.816,264.470 156.088,263.375 157.300 M122.000 159.365 C 120.790 160.741,118.476 163.337,116.858 165.133 C 115.239 166.930,113.999 168.400,114.102 168.400 C 114.205 168.400,116.660 165.790,119.559 162.600 C 122.458 159.410,124.688 156.814,124.515 156.831 C 124.342 156.849,123.210 157.989,122.000 159.365 M280.181 159.300 L 278.600 161.000 280.300 159.419 C 281.881 157.948,282.184 157.600,281.881 157.600 C 281.816 157.600,281.051 158.365,280.181 159.300 M259.578 161.500 L 258.200 163.000 259.700 161.622 C 261.096 160.338,261.384 160.000,261.078 160.000 C 261.012 160.000,260.337 160.675,259.578 161.500 M98.747 164.448 C 96.906 166.454,95.340 168.254,95.267 168.448 C 95.193 168.642,96.268 167.585,97.656 166.100 C 101.881 161.577,102.566 160.800,102.325 160.800 C 102.198 160.800,100.588 162.441,98.747 164.448 M272.400 167.800 C 271.428 168.790,270.723 169.600,270.833 169.600 C 270.943 169.600,271.828 168.790,272.800 167.800 C 273.772 166.810,274.477 166.000,274.367 166.000 C 274.257 166.000,273.372 166.810,272.400 167.800 M252.181 169.700 L 250.600 171.400 252.300 169.819 C 253.881 168.348,254.184 168.000,253.881 168.000 C 253.816 168.000,253.051 168.765,252.181 169.700 M94.342 169.150 C 94.264 169.371,92.702 171.182,90.871 173.175 C 89.040 175.169,87.635 176.800,87.749 176.800 C 87.957 176.800,90.609 174.023,93.393 170.889 C 94.228 169.949,94.816 169.082,94.698 168.964 C 94.580 168.846,94.420 168.930,94.342 169.150 M111.631 170.900 C 109.946 172.900,109.934 172.933,111.364 171.600 C 112.651 170.400,113.880 168.800,113.514 168.800 C 113.451 168.800,112.604 169.745,111.631 170.900 M247.804 174.396 C 247.174 175.054,246.735 175.656,246.829 175.734 C 246.923 175.812,247.513 175.274,248.139 174.538 C 249.554 172.877,249.345 172.788,247.804 174.396 M104.096 179.128 C 99.753 184.019,98.032 185.926,95.452 188.700 C 94.787 189.415,94.350 190.000,94.481 190.000 C 94.612 190.000,97.986 186.400,101.980 182.000 C 105.974 177.600,109.097 174.012,108.921 174.028 C 108.744 174.043,106.573 176.338,104.096 179.128 M265.200 175.800 C 264.228 176.790,263.523 177.600,263.633 177.600 C 263.743 177.600,264.628 176.790,265.600 175.800 C 266.572 174.810,267.277 174.000,267.167 174.000 C 267.057 174.000,266.172 174.810,265.200 175.800 M244.400 178.200 C 243.428 179.190,242.723 180.000,242.833 180.000 C 242.943 180.000,243.828 179.190,244.800 178.200 C 245.772 177.210,246.477 176.400,246.367 176.400 C 246.257 176.400,245.372 177.210,244.400 178.200 M85.161 179.506 C 80.617 184.355,74.228 191.600,74.496 191.600 C 74.594 191.600,76.906 189.125,79.634 186.100 C 82.362 183.075,85.293 179.835,86.148 178.900 C 87.002 177.965,87.616 177.200,87.512 177.200 C 87.407 177.200,86.349 178.238,85.161 179.506 M240.175 182.900 L 239.000 184.200 240.300 183.025 C 241.015 182.379,241.600 181.794,241.600 181.725 C 241.600 181.416,241.270 181.688,240.175 182.900 M257.600 184.200 C 256.628 185.190,255.923 186.000,256.033 186.000 C 256.143 186.000,257.028 185.190,258.000 184.200 C 258.972 183.210,259.677 182.400,259.567 182.400 C 259.457 182.400,258.572 183.210,257.600 184.200 M236.985 186.500 L 235.000 188.600 237.100 186.615 C 239.051 184.771,239.383 184.400,239.085 184.400 C 239.022 184.400,238.077 185.345,236.985 186.500 M254.378 187.900 L 253.000 189.400 254.500 188.022 C 255.896 186.738,256.184 186.400,255.878 186.400 C 255.812 186.400,255.137 187.075,254.378 187.900 M233.544 190.300 C 232.393 191.689,231.906 192.400,232.104 192.400 C 232.214 192.400,232.786 191.770,233.373 191.000 C 234.463 189.571,234.595 189.032,233.544 190.300 M90.632 194.084 C 87.454 197.567,87.457 196.945,90.600 200.370 C 92.030 201.928,93.200 203.095,93.200 202.963 C 93.200 202.831,92.120 201.544,90.800 200.103 C 87.892 196.929,87.868 197.552,91.032 194.084 C 92.480 192.498,93.575 191.200,93.465 191.200 C 93.355 191.200,92.080 192.498,90.632 194.084 M249.781 192.900 L 248.200 194.600 249.900 193.019 C 251.481 191.548,251.784 191.200,251.481 191.200 C 251.416 191.200,250.651 191.965,249.781 192.900 M246.993 196.007 L 245.837 197.214 246.803 198.107 L 247.770 199.000 247.017 198.093 C 246.271 197.195,246.275 197.175,247.407 195.993 C 248.035 195.337,248.460 194.800,248.350 194.800 C 248.240 194.800,247.629 195.343,246.993 196.007 M249.220 201.021 C 250.199 202.133,251.081 202.981,251.181 202.907 C 251.280 202.833,250.479 201.923,249.401 200.886 L 247.440 199.000 249.220 201.021 M229.839 200.294 C 229.708 200.426,229.600 224.079,229.600 252.857 L 229.600 305.182 222.500 305.305 L 215.400 305.429 222.600 305.415 L 229.800 305.400 229.901 253.129 C 229.997 203.757,230.042 200.850,230.701 200.717 C 231.336 200.589,231.339 200.552,230.739 200.316 C 230.376 200.172,229.971 200.163,229.839 200.294 M231.991 202.388 C 232.457 203.041,233.042 203.702,233.291 203.856 C 233.541 204.011,233.241 203.476,232.625 202.668 C 231.288 200.915,230.784 200.692,231.991 202.388 M253.000 205.200 C 253.859 206.080,254.652 206.800,254.762 206.800 C 254.872 206.800,254.259 206.080,253.400 205.200 C 252.541 204.320,251.748 203.600,251.638 203.600 C 251.528 203.600,252.141 204.320,253.000 205.200 M96.303 206.600 C 97.415 207.920,98.927 209.538,99.662 210.196 C 101.130 211.509,99.439 209.565,96.011 206.000 C 94.505 204.433,94.542 204.511,96.303 206.600 M235.220 206.221 C 236.199 207.333,237.081 208.181,237.181 208.107 C 237.280 208.033,236.479 207.123,235.401 206.086 L 233.440 204.200 235.220 206.221 M257.200 209.800 C 257.946 210.570,258.647 211.200,258.757 211.200 C 258.867 211.200,258.346 210.570,257.600 209.800 C 256.854 209.030,256.153 208.400,256.043 208.400 C 255.933 208.400,256.454 209.030,257.200 209.800 M82.646 212.500 C 87.263 217.368,87.809 217.905,86.403 216.200 C 84.373 213.737,81.598 210.800,81.301 210.800 C 81.154 210.800,81.759 211.565,82.646 212.500 M239.600 211.048 C 239.600 211.258,240.545 212.323,241.700 213.415 L 243.800 215.400 241.800 213.208 C 240.700 212.003,239.755 210.938,239.700 210.842 C 239.645 210.745,239.600 210.838,239.600 211.048 M102.229 213.300 C 103.106 214.235,104.959 216.215,106.345 217.700 C 107.732 219.185,108.807 220.250,108.733 220.066 C 108.470 219.405,101.392 211.673,101.017 211.637 C 100.806 211.617,101.351 212.365,102.229 213.300 M260.000 212.925 C 260.000 212.994,260.585 213.579,261.300 214.225 L 262.600 215.400 261.425 214.100 C 260.330 212.888,260.000 212.616,260.000 212.925 M244.825 217.031 C 245.581 217.928,246.281 218.597,246.380 218.517 C 246.479 218.438,245.860 217.704,245.005 216.887 L 243.450 215.400 244.825 217.031 M264.600 218.000 C 265.459 218.880,266.252 219.600,266.362 219.600 C 266.472 219.600,265.859 218.880,265.000 218.000 C 264.141 217.120,263.348 216.400,263.238 216.400 C 263.128 216.400,263.741 217.120,264.600 218.000 M90.662 221.500 C 92.388 223.425,93.899 225.090,94.019 225.200 C 94.139 225.310,96.142 227.565,98.470 230.210 C 100.797 232.856,103.039 235.278,103.451 235.593 C 104.165 236.139,103.841 235.749,100.123 231.600 C 99.236 230.610,96.910 227.991,94.955 225.780 C 93.000 223.569,90.651 220.914,89.737 219.880 C 88.822 218.846,87.950 218.000,87.799 218.000 C 87.648 218.000,88.937 219.575,90.662 221.500 M248.200 220.800 C 249.059 221.680,249.852 222.400,249.962 222.400 C 250.072 222.400,249.459 221.680,248.600 220.800 C 247.741 219.920,246.948 219.200,246.838 219.200 C 246.728 219.200,247.341 219.920,248.200 220.800 M111.514 223.500 C 112.832 224.985,114.330 226.560,114.844 227.000 C 115.358 227.440,114.366 226.225,112.640 224.300 C 110.914 222.375,109.415 220.800,109.310 220.800 C 109.204 220.800,110.196 222.015,111.514 223.500 M268.000 221.725 C 268.000 221.794,268.585 222.379,269.300 223.025 L 270.600 224.200 269.425 222.900 C 268.330 221.688,268.000 221.416,268.000 221.725 M250.000 222.925 C 250.000 222.994,250.585 223.579,251.300 224.225 L 252.600 225.400 251.425 224.100 C 250.330 222.888,250.000 222.616,250.000 222.925 M272.800 227.000 C 273.546 227.770,274.247 228.400,274.357 228.400 C 274.467 228.400,273.946 227.770,273.200 227.000 C 272.454 226.230,271.753 225.600,271.643 225.600 C 271.533 225.600,272.054 226.230,272.800 227.000 M254.600 228.000 C 255.459 228.880,256.252 229.600,256.362 229.600 C 256.472 229.600,255.859 228.880,255.000 228.000 C 254.141 227.120,253.348 226.400,253.238 226.400 C 253.128 226.400,253.741 227.120,254.600 228.000 M117.813 230.373 C 120.002 232.949,123.600 236.746,123.590 236.470 C 123.584 236.322,122.009 234.568,120.090 232.573 C 118.170 230.578,117.146 229.588,117.813 230.373 M274.800 229.325 C 274.800 229.394,275.385 229.979,276.100 230.625 L 277.400 231.800 276.225 230.500 C 275.130 229.288,274.800 229.016,274.800 229.325 M256.400 230.125 C 256.400 230.194,256.985 230.779,257.700 231.425 L 259.000 232.600 257.825 231.300 C 256.730 230.088,256.400 229.816,256.400 230.125 M280.001 234.996 C 280.770 235.873,281.445 236.668,281.500 236.762 C 281.555 236.856,281.687 236.847,281.793 236.741 C 281.899 236.635,281.224 235.840,280.293 234.974 L 278.601 233.400 280.001 234.996 M261.200 235.400 C 261.946 236.170,262.647 236.800,262.757 236.800 C 262.867 236.800,262.346 236.170,261.600 235.400 C 260.854 234.630,260.153 234.000,260.043 234.000 C 259.933 234.000,260.454 234.630,261.200 235.400 M107.012 239.800 C 108.709 241.670,110.187 243.200,110.296 243.200 C 110.484 243.200,109.299 241.817,105.926 238.100 C 105.078 237.165,104.280 236.400,104.154 236.400 C 104.028 236.400,105.314 237.930,107.012 239.800 M264.000 238.600 C 264.746 239.370,265.447 240.000,265.557 240.000 C 265.667 240.000,265.146 239.370,264.400 238.600 C 263.654 237.830,262.953 237.200,262.843 237.200 C 262.733 237.200,263.254 237.830,264.000 238.600 M126.210 239.600 C 128.716 242.565,130.865 244.869,130.995 244.730 C 131.062 244.659,129.670 243.070,127.902 241.200 C 126.134 239.330,125.373 238.610,126.210 239.600 M282.800 238.125 C 282.800 238.194,283.385 238.779,284.100 239.425 L 285.400 240.600 284.225 239.300 C 283.130 238.088,282.800 237.816,282.800 238.125 M267.800 242.800 C 268.659 243.680,269.452 244.400,269.562 244.400 C 269.672 244.400,269.059 243.680,268.200 242.800 C 267.341 241.920,266.548 241.200,266.438 241.200 C 266.328 241.200,266.941 241.920,267.800 242.800 M287.600 243.400 C 288.346 244.170,289.047 244.800,289.157 244.800 C 289.267 244.800,288.746 244.170,288.000 243.400 C 287.254 242.630,286.553 242.000,286.443 242.000 C 286.333 242.000,286.854 242.630,287.600 243.400 M110.847 243.902 C 111.037 244.423,122.463 257.200,122.740 257.200 C 122.849 257.200,122.577 256.795,122.134 256.300 C 121.691 255.805,118.936 252.718,116.011 249.440 C 113.087 246.163,110.763 243.670,110.847 243.902 M269.600 244.925 C 269.600 244.994,270.185 245.579,270.900 246.225 L 272.200 247.400 271.025 246.100 C 269.930 244.888,269.600 244.616,269.600 244.925 M132.815 246.971 C 135.657 250.243,138.400 253.145,138.395 252.876 C 138.393 252.724,136.818 250.967,134.895 248.971 C 132.973 246.975,132.037 246.075,132.815 246.971 M290.400 246.525 C 290.400 246.594,290.985 247.179,291.700 247.825 L 293.000 249.000 291.825 247.700 C 290.730 246.488,290.400 246.216,290.400 246.525 M274.200 250.000 C 275.059 250.880,275.852 251.600,275.962 251.600 C 276.072 251.600,275.459 250.880,274.600 250.000 C 273.741 249.120,272.948 248.400,272.838 248.400 C 272.728 248.400,273.341 249.120,274.200 250.000 M295.000 251.600 C 295.859 252.480,296.652 253.200,296.762 253.200 C 296.872 253.200,296.259 252.480,295.400 251.600 C 294.541 250.720,293.748 250.000,293.638 250.000 C 293.528 250.000,294.141 250.720,295.000 251.600 M276.000 252.125 C 276.000 252.194,276.573 252.779,277.274 253.425 L 278.549 254.600 277.574 253.322 C 276.747 252.237,276.000 251.669,276.000 252.125 M141.914 257.100 C 143.232 258.585,144.730 260.160,145.244 260.600 C 145.758 261.040,144.766 259.825,143.040 257.900 C 141.314 255.975,139.815 254.400,139.710 254.400 C 139.604 254.400,140.596 255.615,141.914 257.100 M278.800 255.050 C 278.800 255.261,279.655 256.236,280.700 257.217 L 282.600 259.000 280.800 257.007 C 279.810 255.912,278.955 254.937,278.900 254.841 C 278.845 254.745,278.800 254.839,278.800 255.050 M125.263 260.355 C 126.658 261.870,129.690 265.276,132.000 267.924 C 134.310 270.571,136.356 272.752,136.547 272.769 C 136.889 272.800,135.621 271.290,132.040 267.400 C 131.027 266.300,128.848 263.871,127.199 262.002 C 123.377 257.672,123.309 257.600,122.991 257.600 C 122.845 257.600,123.867 258.840,125.263 260.355 M302.400 259.800 C 303.146 260.570,303.847 261.200,303.957 261.200 C 304.067 261.200,303.546 260.570,302.800 259.800 C 302.054 259.030,301.353 258.400,301.243 258.400 C 301.133 258.400,301.654 259.030,302.400 259.800 M148.001 263.796 C 148.770 264.673,149.445 265.468,149.500 265.562 C 149.555 265.656,149.687 265.647,149.793 265.541 C 149.899 265.435,149.224 264.640,148.293 263.774 L 146.601 262.200 148.001 263.796 M285.660 262.733 C 285.871 263.291,288.842 266.492,289.001 266.332 C 289.078 266.256,288.326 265.331,287.331 264.278 C 286.335 263.225,285.584 262.529,285.660 262.733 M306.600 264.400 C 307.459 265.280,308.252 266.000,308.362 266.000 C 308.472 266.000,307.859 265.280,307.000 264.400 C 306.141 263.520,305.348 262.800,305.238 262.800 C 305.128 262.800,305.741 263.520,306.600 264.400 M151.400 267.600 C 152.259 268.480,153.052 269.200,153.162 269.200 C 153.272 269.200,152.659 268.480,151.800 267.600 C 150.941 266.720,150.148 266.000,150.038 266.000 C 149.928 266.000,150.541 266.720,151.400 267.600 M310.425 268.631 C 311.181 269.528,311.881 270.197,311.980 270.117 C 312.079 270.038,311.460 269.304,310.605 268.487 L 309.050 267.000 310.425 268.631 M153.600 269.864 C 153.600 270.253,161.222 278.516,161.402 278.323 C 161.465 278.255,159.736 276.268,157.558 273.906 C 155.381 271.544,153.600 269.725,153.600 269.864 M292.000 269.850 C 292.000 270.061,292.855 271.036,293.900 272.017 L 295.800 273.800 294.000 271.807 C 293.010 270.712,292.155 269.737,292.100 269.641 C 292.045 269.545,292.000 269.639,292.000 269.850 M139.413 276.200 C 140.890 277.850,142.178 279.200,142.276 279.200 C 142.594 279.200,137.410 273.261,137.064 273.230 C 136.879 273.214,137.936 274.550,139.413 276.200 M296.800 275.400 C 297.546 276.170,298.247 276.800,298.357 276.800 C 298.467 276.800,297.946 276.170,297.200 275.400 C 296.454 274.630,295.753 274.000,295.643 274.000 C 295.533 274.000,296.054 274.630,296.800 275.400 M300.020 279.021 C 300.999 280.133,301.881 280.981,301.981 280.907 C 302.080 280.833,301.279 279.923,300.201 278.886 L 298.240 277.000 300.020 279.021 M142.800 279.827 C 142.800 279.961,144.330 281.764,146.200 283.834 C 148.070 285.905,149.597 287.464,149.592 287.299 C 149.583 286.941,142.800 279.479,142.800 279.827 M164.323 281.900 C 165.424 283.165,166.916 284.740,167.639 285.400 C 168.362 286.060,167.540 285.025,165.812 283.100 C 164.084 281.175,162.592 279.600,162.496 279.600 C 162.399 279.600,163.222 280.635,164.323 281.900 M321.600 281.000 C 322.346 281.770,323.047 282.400,323.157 282.400 C 323.267 282.400,322.746 281.770,322.000 281.000 C 321.254 280.230,320.553 279.600,320.443 279.600 C 320.333 279.600,320.854 280.230,321.600 281.000 M325.200 285.000 C 325.946 285.770,326.647 286.400,326.757 286.400 C 326.867 286.400,326.346 285.770,325.600 285.000 C 324.854 284.230,324.153 283.600,324.043 283.600 C 323.933 283.600,324.454 284.230,325.200 285.000 M306.200 286.000 C 307.059 286.880,307.837 287.600,307.928 287.600 C 308.265 287.600,305.386 284.466,305.019 284.434 C 304.809 284.415,305.341 285.120,306.200 286.000 M169.239 287.073 C 169.441 287.667,176.800 295.718,176.800 295.346 C 176.800 295.195,175.855 294.065,174.700 292.834 C 173.545 291.603,171.807 289.697,170.839 288.598 C 169.870 287.499,169.150 286.813,169.239 287.073 M152.354 290.704 C 153.749 292.301,155.094 293.732,155.345 293.884 C 155.972 294.263,151.911 289.589,150.754 288.600 C 150.240 288.160,150.960 289.107,152.354 290.704 M308.400 288.255 C 308.400 288.468,309.075 289.263,309.900 290.022 L 311.400 291.400 310.000 289.804 C 309.230 288.927,308.555 288.132,308.500 288.038 C 308.445 287.944,308.400 288.041,308.400 288.255 M328.800 288.925 C 328.800 288.994,329.385 289.579,330.100 290.225 L 331.400 291.400 330.225 290.100 C 329.130 288.888,328.800 288.616,328.800 288.925 M332.600 293.200 C 333.459 294.080,334.252 294.800,334.362 294.800 C 334.472 294.800,333.859 294.080,333.000 293.200 C 332.141 292.320,331.348 291.600,331.238 291.600 C 331.128 291.600,331.741 292.320,332.600 293.200 M312.800 293.400 C 313.546 294.170,314.247 294.800,314.357 294.800 C 314.467 294.800,313.946 294.170,313.200 293.400 C 312.454 292.630,311.753 292.000,311.643 292.000 C 311.533 292.000,312.054 292.630,312.800 293.400 M158.822 298.000 C 160.632 299.980,162.211 301.600,162.331 301.600 C 162.552 301.600,162.125 301.108,158.572 297.271 C 157.487 296.099,156.540 294.974,156.467 294.771 C 156.393 294.567,156.153 294.400,155.932 294.400 C 155.712 294.400,157.012 296.020,158.822 298.000 M316.200 297.200 C 317.059 298.080,317.852 298.800,317.962 298.800 C 318.072 298.800,317.459 298.080,316.600 297.200 C 315.741 296.320,314.948 295.600,314.838 295.600 C 314.728 295.600,315.341 296.320,316.200 297.200 M179.514 298.700 C 180.832 300.185,182.330 301.760,182.844 302.200 C 183.358 302.640,182.366 301.425,180.640 299.500 C 178.914 297.575,177.415 296.000,177.310 296.000 C 177.204 296.000,178.196 297.215,179.514 298.700 M336.800 297.800 C 337.546 298.570,338.247 299.200,338.357 299.200 C 338.467 299.200,337.946 298.570,337.200 297.800 C 336.454 297.030,335.753 296.400,335.643 296.400 C 335.533 296.400,336.054 297.030,336.800 297.800 M319.400 300.800 C 320.259 301.680,321.052 302.400,321.162 302.400 C 321.272 302.400,320.659 301.680,319.800 300.800 C 318.941 299.920,318.148 299.200,318.038 299.200 C 317.928 299.200,318.541 299.920,319.400 300.800 M340.000 301.400 C 340.746 302.170,341.447 302.800,341.557 302.800 C 341.667 302.800,341.146 302.170,340.400 301.400 C 339.654 300.630,338.953 300.000,338.843 300.000 C 338.733 300.000,339.254 300.630,340.000 301.400 M163.983 303.700 L 165.767 305.600 175.683 305.600 C 181.137 305.600,185.600 305.448,185.600 305.261 C 185.600 305.075,185.240 304.507,184.800 304.000 C 184.360 303.493,184.000 303.226,184.000 303.407 C 184.000 303.589,184.298 304.066,184.662 304.469 C 185.302 305.175,184.994 305.200,175.577 305.200 L 165.830 305.200 164.015 303.500 L 162.200 301.800 163.983 303.700 M322.378 304.100 L 323.757 305.600 333.778 305.507 L 343.800 305.415 333.812 305.300 L 323.823 305.186 322.412 303.893 L 321.000 302.600 322.378 304.100 " stroke="none" fill="#842c2c" fill-rule="evenodd"></path></g></svg>